# xmcd
#
# Track frame offsets:
#	150
#	17669
#	33504
#	52637
#	67593
#	86793
#	104795
#	120710
#	139684
#	158391
#	174896
#	192366
#	209625
#	227482
#	248536
#	264244
#	281142
#	300028
#
# Disc length: 4236 seconds
#
# Revision: 0
# Processed by: cddbd v1.5.2PL0 Copyright (c) Steve Scherf et al.
# Submitted via: EasyCDDAExtractor 12.0.7.1
#
DISCID=df108a12
DTITLE=Рада Рай - Аллея шансона
DYEAR=2011
DGENRE=Chanson
TTITLE0=Калина
TTITLE1=Ты не стой на моем пути
TTITLE2=Душа
TTITLE3=Клен
TTITLE4=Забыто
TTITLE5=Расскажи
TTITLE6=Радуюсь
TTITLE7=Я тобою уже не болею
TTITLE8=Мотив
TTITLE9=Где ты
TTITLE10=Бабье лето
TTITLE11=Если бы я знала
TTITLE12=Вольный рай
TTITLE13=Вишня
TTITLE14=Протяни ладонь
TTITLE15=Ангел
TTITLE16=Последняя любовь
TTITLE17=Помоги, Боже
EXTD=
EXTT0=
EXTT1=
EXTT2=
EXTT3=
EXTT4=
EXTT5=
EXTT6=
EXTT7=
EXTT8=
EXTT9=
EXTT10=
EXTT11=
EXTT12=
EXTT13=
EXTT14=
EXTT15=
EXTT16=
EXTT17=
PLAYORDER=
